<svg width="80" height="80" viewBox="0 0 80 80" fill="none" xmlns="http://www.w3.org/2000/svg">
<path d="M40 80C62.0914 80 80 62.0914 80 40C80 17.9086 62.0914 0 40 0C17.9086 0 0 17.9086 0 40C0 62.0914 17.9086 80 40 80Z" fill="black"/>
<path fill-rule="evenodd" clip-rule="evenodd" d="M38.4891 57.5436H41.6286C41.6286 57.5436 42.5769 57.4395 43.0611 56.9175C43.5067 56.4384 43.4925 55.5385 43.4925 55.5385C43.4925 55.5385 43.4311 51.3259 45.3863 50.7055C47.3136 50.0945 49.7886 54.777 52.4118 56.5774C54.3955 57.94 55.9029 57.6413 55.9029 57.6413L62.917 57.5436C62.917 57.5436 66.5863 57.3175 64.8465 54.4326C64.7039 54.1966 63.8333 52.2985 59.6314 48.3981C55.2333 44.316 55.8223 44.9763 61.1202 37.9151C64.3467 33.6147 65.6366 30.9893 65.2337 29.8649C64.8494 28.7939 62.4764 29.0769 62.4764 29.0769L54.5788 29.1261C54.5788 29.1261 53.9934 29.0463 53.5591 29.3058C53.1349 29.5604 52.8618 30.1536 52.8618 30.1536C52.8618 30.1536 51.6118 33.4814 49.9447 36.3114C46.428 42.2831 45.0219 42.5983 44.4472 42.2275C43.1103 41.3633 43.444 38.7557 43.444 36.9033C43.444 31.1162 44.3217 28.7033 41.7348 28.0787C40.8763 27.8712 40.2446 27.7343 38.0491 27.7122C35.2312 27.683 32.8461 27.7207 31.4956 28.3824C30.5972 28.8224 29.9041 29.8028 30.3262 29.8591C30.8482 29.929 32.0304 30.1779 32.6571 31.0314C33.4664 32.1323 33.4379 34.6051 33.4379 34.6051C33.4379 34.6051 33.9028 41.4175 32.352 42.2639C31.2874 42.8443 29.8271 41.6592 26.6919 36.2416C25.0854 33.4664 23.8725 30.3989 23.8725 30.3989C23.8725 30.3989 23.6386 29.8256 23.2215 29.519C22.7152 29.1475 22.0079 29.0292 22.0079 29.0292L14.5032 29.0784C14.5032 29.0784 13.3766 29.1097 12.963 29.5996C12.5951 30.0353 12.9338 30.9366 12.9338 30.9366C12.9338 30.9366 18.8092 44.6825 25.4619 51.6097C31.5619 57.9607 38.4891 57.5436 38.4891 57.5436Z" fill="white"/>
</svg>
